<svg xmlns="http://www.w3.org/2000/svg" id="canvas" viewBox="204.879 239.329 787.042 267.882"><path d="M 226.78,275.17 C 226.27 276.39, 226.07 277.53, 226.02 281.28 C 225.96 285.03, 226.47 287.51, 226.51 293.92 C 226.55 300.33, 226.52 304.53, 226.22 313.32 C 225.93 322.11, 225.77 327.41, 225.05 337.86 C 224.33 348.30, 223.73 354.25, 222.64 365.52 C 221.55 376.80, 220.73 382.94, 219.59 394.25 C 218.44 405.55, 217.82 411.58, 216.91 422.05 C 216.00 432.51, 215.71 437.76, 215.04 446.56 C 214.36 455.36, 214.03 459.47, 213.52 466.05 C 213.02 472.63, 212.60 475.63, 212.50 479.46 C 212.39 483.29, 212.80 484.82, 213.01 485.20 C 213.21 485.59, 213.75 484.88, 213.52 481.38 C 213.30 477.89, 212.53 475.21, 211.87 467.73 C 211.22 460.26, 210.80 454.88, 210.26 444.00 C 209.71 433.13, 209.28 426.21, 209.15 413.37 C 209.01 400.53, 209.04 393.15, 209.58 379.80 C 210.11 366.45, 210.62 359.33, 211.83 346.61 C 213.03 333.89, 213.75 327.46, 215.60 316.19 C 217.45 304.92, 218.60 299.49, 221.06 290.27 C 223.53 281.04, 225.02 276.92, 227.92 270.07 C 230.82 263.23, 232.46 260.45, 235.56 256.06 C 238.66 251.67, 240.33 250.22, 243.43 248.11 C 246.53 246.00, 248.10 245.65, 251.07 245.50 C 254.03 245.36, 255.44 245.74, 258.24 247.37 C 261.05 249.00, 262.58 250.27, 265.09 253.64 C 267.60 257.01, 268.97 259.30, 270.78 264.21 C 272.59 269.12, 273.31 272.23, 274.15 278.18 C 274.99 284.13, 275.14 287.58, 274.96 293.96 C 274.79 300.33, 274.45 303.77, 273.28 310.06 C 272.12 316.34, 271.22 319.60, 269.14 325.39 C 267.06 331.19, 265.64 334.02, 262.88 339.05 C 260.12 344.08, 258.46 346.42, 255.34 350.53 C 252.21 354.63, 250.38 356.49, 247.25 359.56 C 244.13 362.64, 242.35 363.82, 239.70 365.90 C 237.06 367.99, 235.71 368.50, 234.04 369.98 C 232.37 371.46, 231.96 371.99, 231.36 373.31 C 230.75 374.63, 230.65 374.97, 231.00 376.59 C 231.35 378.21, 231.53 379.13, 233.10 381.41 C 234.66 383.69, 236.25 384.70, 238.82 387.99 C 241.39 391.28, 242.93 393.30, 245.94 397.85 C 248.95 402.41, 250.59 405.27, 253.88 410.77 C 257.17 416.26, 258.93 419.44, 262.39 425.33 C 265.84 431.22, 267.61 434.46, 271.15 440.21 C 274.68 445.95, 276.48 448.97, 280.07 454.06 C 283.66 459.15, 285.47 461.68, 289.10 465.66 C 292.73 469.65, 294.49 471.37, 298.22 473.99 C 301.95 476.61, 303.88 477.66, 307.74 478.76 C 311.59 479.86, 313.57 480.06, 317.48 479.47 C 321.39 478.88, 323.40 478.16, 327.29 475.83 C 331.18 473.50, 333.20 471.88, 336.95 467.81 C 340.69 463.73, 342.51 461.16, 346.00 455.45 C 349.49 449.73, 351.27 446.29, 354.39 439.24 C 357.51 432.19, 359.10 427.93, 361.58 420.19 C 364.07 412.45, 365.20 408.08, 366.83 400.56 C 368.45 393.05, 369.03 389.15, 369.70 382.60 C 370.38 376.05, 370.39 372.93, 370.18 367.82 C 369.98 362.71, 369.77 360.45, 368.67 357.05 C 367.57 353.64, 366.78 352.38, 364.68 350.80 C 362.59 349.22, 360.95 348.65, 358.19 349.12 C 355.42 349.60, 353.80 350.34, 350.86 353.19 C 347.93 356.03, 346.30 358.14, 343.50 363.36 C 340.70 368.58, 339.09 372.00, 336.85 379.29 C 334.61 386.58, 333.56 391.27, 332.30 399.81 C 331.04 408.35, 330.51 413.49, 330.56 422.01 C 330.61 430.53, 331.09 435.07, 332.57 442.41 C 334.06 449.74, 335.21 453.20, 338.00 458.68 C 340.79 464.16, 342.63 466.43, 346.52 469.79 C 350.41 473.15, 352.78 474.23, 357.45 475.48 C 362.12 476.74, 364.83 476.83, 369.87 476.08 C 374.90 475.33, 377.58 474.45, 382.64 471.74 C 387.69 469.03, 390.27 467.13, 395.16 462.53 C 400.06 457.93, 402.53 455.08, 407.11 448.73 C 411.69 442.37, 414.00 438.35, 418.07 430.75 C 422.13 423.16, 424.07 418.60, 427.43 410.75 C 430.78 402.91, 432.32 398.44, 434.86 391.54 C 437.41 384.63, 438.76 380.88, 440.15 376.23 C 441.55 371.59, 441.88 369.55, 441.83 368.30 C 441.78 367.04, 440.56 367.21, 439.90 369.95 C 439.25 372.68, 439.21 375.61, 438.57 381.98 C 437.93 388.35, 437.33 393.16, 436.70 401.80 C 436.07 410.45, 435.80 416.03, 435.41 425.22 C 435.03 434.41, 434.82 439.53, 434.77 447.74 C 434.72 455.95, 434.84 459.96, 435.15 466.27 C 435.46 472.58, 435.78 475.26, 436.33 479.28 C 436.88 483.30, 437.19 484.43, 437.91 486.38 C 438.62 488.32, 439.23 488.48, 439.89 489.01 C 440.56 489.53, 440.94 489.12, 441.22 489.01 C 441.50 488.91, 441.35 488.63, 441.31 488.47 C 441.28 488.30, 441.16 488.77, 441.03 488.19 C 440.89 487.61, 441.06 487.43, 440.65 485.57 C 440.23 483.70, 439.65 482.75, 438.96 478.86 C 438.26 474.98, 437.65 472.37, 437.16 466.14 C 436.67 459.92, 436.51 455.91, 436.52 447.74 C 436.52 439.58, 436.72 434.46, 437.18 425.30 C 437.64 416.15, 438.03 410.58, 438.82 401.98 C 439.61 393.37, 440.35 388.62, 441.14 382.27 C 441.94 375.92, 442.90 373.12, 442.80 370.23 C 442.70 367.34, 441.64 366.76, 440.64 367.81 C 439.64 368.86, 439.32 370.88, 437.80 375.49 C 436.28 380.11, 435.44 383.97, 433.04 390.89 C 430.64 397.80, 429.13 402.27, 425.82 410.07 C 422.52 417.88, 420.57 422.42, 416.52 429.92 C 412.47 437.43, 410.13 441.40, 405.57 447.61 C 401.01 453.81, 398.52 456.56, 393.70 460.96 C 388.89 465.36, 386.35 467.09, 381.50 469.60 C 376.66 472.11, 374.17 472.83, 369.49 473.52 C 364.81 474.20, 362.39 474.13, 358.09 473.04 C 353.79 471.95, 351.66 471.11, 347.99 468.06 C 344.33 465.00, 342.51 462.96, 339.78 457.76 C 337.05 452.56, 335.84 449.19, 334.35 442.04 C 332.85 434.89, 332.35 430.39, 332.31 422.00 C 332.26 413.61, 332.80 408.50, 334.12 400.09 C 335.44 391.67, 336.54 387.02, 338.89 379.94 C 341.24 372.86, 342.98 369.53, 345.86 364.69 C 348.74 359.85, 350.67 358.16, 353.28 355.73 C 355.89 353.29, 356.99 353.02, 358.91 352.51 C 360.82 352.00, 361.49 352.07, 362.85 353.17 C 364.22 354.26, 364.76 355.05, 365.74 358.01 C 366.72 360.97, 367.37 363.08, 367.76 367.96 C 368.15 372.85, 368.23 375.97, 367.68 382.41 C 367.13 388.85, 366.58 392.73, 365.00 400.18 C 363.43 407.62, 362.31 411.97, 359.82 419.62 C 357.34 427.27, 355.73 431.51, 352.58 438.43 C 349.44 445.36, 347.60 448.74, 344.09 454.26 C 340.58 459.77, 338.69 462.20, 335.02 466.00 C 331.36 469.79, 329.37 471.16, 325.76 473.23 C 322.16 475.29, 320.45 475.80, 317.01 476.32 C 313.56 476.84, 311.99 476.74, 308.55 475.82 C 305.10 474.91, 303.30 474.10, 299.76 471.74 C 296.23 469.38, 294.45 467.82, 290.87 464.02 C 287.29 460.23, 285.45 457.77, 281.86 452.78 C 278.28 447.80, 276.47 444.81, 272.95 439.10 C 269.43 433.39, 267.67 430.15, 264.27 424.24 C 260.87 418.33, 259.14 415.14, 255.97 409.55 C 252.80 403.96, 251.22 401.07, 248.43 396.30 C 245.65 391.54, 244.29 389.33, 242.06 385.73 C 239.83 382.14, 238.96 380.40, 237.29 378.31 C 235.62 376.22, 234.52 376.03, 233.73 375.28 C 232.93 374.53, 232.80 375.01, 233.32 374.54 C 233.84 374.07, 234.59 374.10, 236.33 372.92 C 238.07 371.75, 239.41 370.95, 242.01 368.69 C 244.61 366.42, 246.27 364.91, 249.34 361.58 C 252.41 358.25, 254.25 356.32, 257.36 352.03 C 260.47 347.74, 262.13 345.33, 264.90 340.15 C 267.67 334.97, 269.10 332.07, 271.20 326.13 C 273.31 320.19, 274.22 316.87, 275.42 310.45 C 276.62 304.03, 276.98 300.54, 277.21 294.03 C 277.44 287.51, 277.34 284.01, 276.58 277.86 C 275.81 271.71, 275.18 268.50, 273.39 263.28 C 271.60 258.07, 270.32 255.55, 267.62 251.79 C 264.92 248.03, 263.24 246.36, 259.88 244.49 C 256.53 242.61, 254.44 242.11, 250.85 242.41 C 247.26 242.72, 245.33 243.52, 241.95 246.02 C 238.56 248.53, 237.00 250.24, 233.90 254.93 C 230.80 259.61, 229.27 262.46, 226.45 269.46 C 223.62 276.46, 222.18 280.62, 219.78 289.93 C 217.38 299.24, 216.26 304.69, 214.45 316.00 C 212.64 327.32, 211.93 333.76, 210.73 346.51 C 209.54 359.26, 209.03 366.38, 208.46 379.76 C 207.89 393.13, 207.85 400.52, 207.89 413.38 C 207.93 426.24, 208.29 433.17, 208.65 444.07 C 209.01 454.97, 209.28 460.35, 209.70 467.89 C 210.13 475.43, 210.01 478.24, 210.76 481.77 C 211.51 485.30, 212.59 485.98, 213.44 485.55 C 214.29 485.12, 214.63 483.49, 215.01 479.62 C 215.40 475.74, 215.08 472.76, 215.38 466.17 C 215.68 459.57, 215.95 455.46, 216.52 446.66 C 217.09 437.86, 217.36 432.61, 218.23 422.16 C 219.10 411.70, 219.71 405.68, 220.85 394.38 C 222.00 383.08, 222.81 376.94, 223.95 365.65 C 225.09 354.37, 225.71 348.42, 226.54 337.97 C 227.37 327.52, 227.61 322.20, 228.10 313.40 C 228.58 304.60, 228.78 300.38, 228.98 293.95 C 229.18 287.52, 229.17 285.02, 229.09 281.27 C 229.00 277.52, 229.03 276.43, 228.57 275.21 C 228.11 273.99, 227.29 273.96, 226.78 275.17" style="stroke: lightblue; fill: lightblue;"/><path d="M 444.28,298.87 C 444.74 298.08, 444.90 297.05, 444.59 296.62 C 444.28 296.20, 443.29 296.60, 442.72 296.75 C 442.15 296.91, 442.00 297.32, 441.74 297.41 C 441.47 297.50, 441.69 297.06, 441.39 297.22 C 441.09 297.37, 440.54 297.53, 440.24 298.17 C 439.95 298.80, 439.48 299.91, 439.90 300.39 C 440.32 300.88, 441.45 300.88, 442.33 300.58 C 443.20 300.27, 443.83 299.66, 444.28 298.87" style="stroke: lightblue; fill: lightblue;"/><path d="M 529.39,352.16 C 529.07 351.25, 528.51 350.30, 526.77 349.30 C 525.04 348.30, 523.67 347.45, 520.73 347.15 C 517.78 346.86, 515.77 346.94, 512.05 347.83 C 508.33 348.72, 506.15 349.51, 502.13 351.59 C 498.11 353.68, 495.75 355.13, 491.94 358.25 C 488.13 361.37, 486.00 363.35, 483.09 367.22 C 480.18 371.08, 478.70 373.33, 477.38 377.57 C 476.05 381.80, 475.87 384.15, 476.45 388.40 C 477.04 392.66, 478.02 394.72, 480.31 398.85 C 482.60 402.98, 484.48 404.93, 487.92 409.07 C 491.36 413.20, 493.60 415.24, 497.50 419.51 C 501.40 423.78, 503.70 426.02, 507.42 430.42 C 511.13 434.82, 513.19 437.18, 516.07 441.52 C 518.96 445.87, 520.25 448.05, 521.85 452.14 C 523.45 456.23, 523.91 458.19, 524.08 461.99 C 524.25 465.78, 524.04 467.52, 522.72 471.12 C 521.41 474.72, 520.29 476.55, 517.52 479.99 C 514.74 483.44, 512.87 485.31, 508.84 488.35 C 504.81 491.40, 502.16 492.95, 497.37 495.21 C 492.58 497.48, 489.67 498.48, 484.91 499.67 C 480.15 500.87, 477.53 501.23, 473.55 501.19 C 469.57 501.14, 467.72 500.74, 465.02 499.46 C 462.33 498.17, 461.41 497.15, 460.09 494.76 C 458.77 492.37, 458.40 490.81, 458.42 487.52 C 458.44 484.22, 458.82 482.07, 460.19 478.27 C 461.56 474.47, 462.51 472.38, 465.27 468.51 C 468.03 464.65, 469.87 462.55, 473.98 458.94 C 478.09 455.33, 480.76 453.60, 485.83 450.48 C 490.90 447.35, 493.74 446.08, 499.32 443.32 C 504.90 440.56, 507.98 439.31, 513.73 436.68 C 519.47 434.06, 522.53 432.91, 528.05 430.19 C 533.56 427.48, 536.26 426.16, 541.31 423.12 C 546.35 420.07, 548.79 418.55, 553.26 414.97 C 557.73 411.38, 559.83 409.48, 563.65 405.19 C 567.47 400.91, 569.24 398.43, 572.35 393.55 C 575.47 388.67, 576.93 385.89, 579.22 380.80 C 581.51 375.71, 582.47 372.90, 583.78 368.08 C 585.09 363.26, 585.51 360.73, 585.76 356.70 C 586.01 352.67, 586.09 350.62, 585.03 347.93 C 583.97 345.24, 582.76 344.07, 580.46 343.24 C 578.16 342.41, 576.37 342.24, 573.53 343.77 C 570.70 345.30, 569.27 346.78, 566.27 350.88 C 563.27 354.97, 561.57 357.77, 558.54 364.23 C 555.51 370.69, 553.76 374.91, 551.11 383.18 C 548.47 391.46, 547.00 396.61, 545.30 405.62 C 543.61 414.62, 542.90 419.71, 542.62 428.21 C 542.35 436.72, 542.71 441.03, 543.93 448.14 C 545.15 455.25, 546.19 458.48, 548.74 463.75 C 551.30 469.01, 552.97 471.13, 556.72 474.47 C 560.46 477.81, 562.87 478.94, 567.45 480.43 C 572.03 481.91, 574.63 482.22, 579.62 481.90 C 584.62 481.59, 587.69 480.52, 592.43 478.85 C 597.18 477.18, 599.78 475.69, 603.34 473.56 C 606.89 471.44, 609.06 469.61, 610.22 468.23 C 611.39 466.85, 610.85 466.13, 609.17 466.67 C 607.50 467.21, 605.40 469.06, 601.85 470.93 C 598.31 472.80, 595.91 474.39, 591.42 476.03 C 586.94 477.67, 584.06 478.75, 579.42 479.13 C 574.78 479.51, 572.46 479.23, 568.23 477.94 C 564.00 476.66, 561.79 475.72, 558.26 472.70 C 554.73 469.68, 553.09 467.82, 550.58 462.84 C 548.06 457.87, 546.96 454.74, 545.70 447.83 C 544.44 440.91, 544.04 436.64, 544.29 428.26 C 544.54 419.88, 545.24 414.83, 546.96 405.93 C 548.68 397.03, 550.16 391.91, 552.90 383.77 C 555.63 375.63, 557.46 371.45, 560.62 365.25 C 563.78 359.04, 565.72 356.37, 568.69 352.75 C 571.66 349.13, 573.32 348.51, 575.49 347.15 C 577.65 345.79, 578.29 345.56, 579.53 345.95 C 580.76 346.34, 581.07 346.97, 581.66 349.09 C 582.26 351.21, 582.62 352.88, 582.51 356.54 C 582.39 360.20, 582.22 362.75, 581.10 367.39 C 579.98 372.04, 579.07 374.81, 576.91 379.78 C 574.75 384.75, 573.32 387.48, 570.31 392.25 C 567.31 397.02, 565.59 399.44, 561.89 403.63 C 558.19 407.81, 556.16 409.65, 551.81 413.16 C 547.45 416.67, 545.08 418.17, 540.13 421.18 C 535.18 424.18, 532.52 425.50, 527.06 428.19 C 521.60 430.89, 518.56 432.05, 512.81 434.67 C 507.06 437.28, 503.96 438.53, 498.32 441.28 C 492.67 444.04, 489.79 445.29, 484.58 448.43 C 479.37 451.56, 476.60 453.29, 472.27 456.96 C 467.93 460.63, 465.94 462.74, 462.90 466.77 C 459.86 470.80, 458.68 472.95, 457.06 477.10 C 455.45 481.24, 454.83 483.61, 454.81 487.50 C 454.79 491.38, 455.22 493.54, 456.98 496.54 C 458.74 499.53, 460.29 500.94, 463.61 502.48 C 466.92 504.01, 469.14 504.23, 473.54 504.21 C 477.94 504.19, 480.60 503.69, 485.60 502.38 C 490.60 501.08, 493.55 500.04, 498.54 497.68 C 503.52 495.33, 506.27 493.78, 510.53 490.61 C 514.79 487.45, 516.81 485.55, 519.82 481.86 C 522.83 478.17, 524.14 476.16, 525.58 472.15 C 527.02 468.15, 527.25 466.04, 527.02 461.84 C 526.78 457.63, 526.17 455.47, 524.41 451.12 C 522.65 446.77, 521.23 444.55, 518.21 440.09 C 515.19 435.63, 513.09 433.27, 509.33 428.81 C 505.57 424.35, 503.27 422.09, 499.41 417.79 C 495.55 413.49, 493.34 411.40, 490.03 407.33 C 486.72 403.26, 484.97 401.32, 482.84 397.45 C 480.72 393.59, 479.93 391.79, 479.42 388.00 C 478.90 384.20, 479.04 382.27, 480.26 378.48 C 481.48 374.70, 482.79 372.62, 485.52 369.07 C 488.26 365.52, 490.30 363.59, 493.93 360.73 C 497.56 357.87, 499.90 356.51, 503.69 354.79 C 507.47 353.06, 509.56 352.56, 512.86 352.11 C 516.16 351.67, 517.71 352.32, 520.20 352.55 C 522.68 352.79, 523.64 353.05, 525.28 353.31 C 526.92 353.57, 527.57 354.07, 528.40 353.84 C 529.22 353.61, 529.72 353.07, 529.39 352.16" style="stroke: lightblue; fill: lightblue;"/><path d="M 619.56,348.33 C 620.02 348.74, 620.08 348.87, 621.47 348.97 C 622.86 349.07, 623.80 349.31, 626.51 348.82 C 629.22 348.32, 630.96 347.32, 635.01 346.49 C 639.06 345.67, 641.88 345.22, 646.78 344.68 C 651.68 344.13, 654.66 343.84, 659.50 343.77 C 664.34 343.70, 667.02 343.79, 671.00 344.33 C 674.97 344.87, 676.82 345.44, 679.37 346.47 C 681.92 347.51, 682.83 347.93, 683.74 349.52 C 684.66 351.10, 684.75 351.67, 683.94 354.39 C 683.13 357.10, 682.36 358.87, 679.69 363.11 C 677.03 367.35, 675.04 369.88, 670.61 375.60 C 666.19 381.32, 663.11 384.79, 657.56 391.70 C 652.02 398.61, 648.47 402.71, 642.88 410.15 C 637.29 417.60, 634.26 421.75, 629.61 428.94 C 624.97 436.14, 622.54 439.80, 619.66 446.12 C 616.79 452.44, 615.73 455.42, 615.24 460.54 C 614.75 465.65, 615.33 468.00, 617.20 471.69 C 619.08 475.37, 620.80 476.81, 624.62 478.97 C 628.45 481.13, 631.13 481.69, 636.35 482.49 C 641.56 483.29, 644.71 483.27, 650.69 482.97 C 656.66 482.67, 660.13 482.19, 666.23 480.99 C 672.34 479.80, 675.83 478.63, 681.21 476.98 C 686.58 475.34, 689.30 474.36, 693.10 472.77 C 696.89 471.19, 698.90 470.10, 700.19 469.06 C 701.48 468.02, 701.15 467.34, 699.53 467.59 C 697.92 467.83, 695.95 468.92, 692.14 470.30 C 688.32 471.69, 685.71 472.85, 680.44 474.50 C 675.16 476.16, 671.73 477.41, 665.76 478.59 C 659.79 479.77, 656.37 480.17, 650.57 480.41 C 644.77 480.64, 641.69 480.54, 636.77 479.77 C 631.85 478.99, 629.43 478.37, 625.97 476.52 C 622.51 474.67, 621.18 473.66, 619.47 470.50 C 617.76 467.34, 617.04 465.46, 617.42 460.73 C 617.80 456.01, 618.64 453.05, 621.36 446.88 C 624.08 440.70, 626.45 436.99, 631.02 429.85 C 635.59 422.70, 638.61 418.55, 644.20 411.15 C 649.80 403.75, 653.35 399.69, 658.98 392.85 C 664.61 386.02, 667.73 382.62, 672.36 376.99 C 676.98 371.36, 679.09 369.02, 682.09 364.70 C 685.10 360.37, 686.49 358.70, 687.38 355.35 C 688.27 352.01, 687.86 350.42, 686.55 347.97 C 685.24 345.52, 683.86 344.48, 680.83 343.11 C 677.80 341.73, 675.67 341.59, 671.40 341.10 C 667.13 340.61, 664.45 340.62, 659.46 340.66 C 654.48 340.71, 651.49 341.00, 646.48 341.33 C 641.47 341.67, 638.63 341.98, 634.41 342.35 C 630.19 342.72, 628.16 342.58, 625.39 343.17 C 622.62 343.76, 621.81 344.55, 620.57 345.29 C 619.32 346.04, 619.35 346.30, 619.15 346.90 C 618.94 347.51, 619.09 347.91, 619.56 348.33" style="stroke: lightblue; fill: lightblue;"/><path d="M 632.48,395.19 C 633.13 395.44, 633.24 395.77, 635.02 395.19 C 636.80 394.60, 638.04 394.03, 641.39 392.25 C 644.74 390.47, 646.91 389.14, 651.78 386.28 C 656.64 383.41, 659.95 381.41, 665.73 377.95 C 671.51 374.48, 674.82 372.42, 680.67 368.93 C 686.53 365.44, 689.52 363.47, 695.02 360.49 C 700.52 357.51, 703.43 355.98, 708.17 354.02 C 712.90 352.07, 715.32 351.40, 718.70 350.71 C 722.08 350.03, 723.17 349.70, 725.07 350.59 C 726.97 351.48, 727.30 352.06, 728.20 355.15 C 729.11 358.25, 729.40 360.42, 729.58 366.07 C 729.77 371.71, 729.51 375.57, 729.15 383.35 C 728.79 391.14, 728.44 396.22, 727.76 404.98 C 727.09 413.75, 726.57 418.74, 725.79 427.17 C 725.01 435.60, 724.53 439.94, 723.86 447.14 C 723.18 454.33, 722.87 457.85, 722.43 463.14 C 722.00 468.43, 721.70 470.49, 721.68 473.59 C 721.66 476.69, 722.05 477.40, 722.33 478.65 C 722.62 479.91, 722.84 479.63, 723.10 479.87 C 723.36 480.10, 723.41 480.07, 723.63 479.82 C 723.84 479.57, 723.92 479.86, 724.18 478.63 C 724.43 477.40, 724.79 476.73, 724.90 473.66 C 725.01 470.59, 724.57 468.54, 724.73 463.27 C 724.90 458.00, 725.17 454.49, 725.73 447.30 C 726.28 440.11, 726.75 435.76, 727.52 427.33 C 728.30 418.90, 728.84 413.90, 729.59 405.13 C 730.34 396.36, 730.76 391.30, 731.28 383.48 C 731.81 375.65, 732.23 371.87, 732.22 366.02 C 732.20 360.17, 732.37 357.84, 731.20 354.22 C 730.03 350.61, 728.97 349.22, 726.35 347.93 C 723.73 346.64, 721.95 347.02, 718.11 347.78 C 714.28 348.54, 712.01 349.56, 707.17 351.71 C 702.34 353.86, 699.48 355.48, 693.95 358.54 C 688.43 361.61, 685.44 363.58, 679.55 367.03 C 673.66 370.49, 670.35 372.52, 664.50 375.83 C 658.65 379.13, 655.30 381.03, 650.29 383.56 C 645.28 386.08, 642.86 386.79, 639.46 388.44 C 636.05 390.08, 634.81 390.67, 633.28 391.76 C 631.75 392.86, 631.96 393.24, 631.80 393.93 C 631.64 394.62, 631.84 394.94, 632.48 395.19" style="stroke: lightblue; fill: lightblue;"/><path d="M 734.52,289.72 C 735.38 289.82, 736.29 289.59, 736.60 289.21 C 736.91 288.83, 736.63 288.17, 736.09 287.82 C 735.55 287.47, 734.40 287.44, 733.91 287.47 C 733.43 287.49, 733.25 288.03, 733.66 287.94 C 734.07 287.85, 735.67 287.39, 735.96 287.00 C 736.25 286.61, 735.80 286.14, 735.10 285.99 C 734.40 285.84, 733.23 286.04, 732.45 286.25 C 731.67 286.47, 731.22 286.59, 731.19 287.08 C 731.16 287.57, 731.63 288.19, 732.30 288.72 C 732.97 289.25, 733.66 289.62, 734.52 289.72" style="stroke: lightblue; fill: lightblue;"/><path d="M 765.07,390.02 C 766.22 390.40, 767.77 390.78, 770.38 390.00 C 772.99 389.22, 774.61 388.35, 778.11 386.13 C 781.61 383.90, 784.03 382.41, 787.87 378.88 C 791.71 375.35, 793.77 373.00, 797.31 368.48 C 800.85 363.97, 802.66 361.13, 805.59 356.31 C 808.52 351.49, 810.03 348.83, 811.94 344.38 C 813.86 339.92, 814.53 337.69, 815.15 334.02 C 815.78 330.36, 815.89 328.61, 815.05 326.05 C 814.21 323.49, 813.21 322.22, 810.94 321.21 C 808.68 320.21, 806.88 319.80, 803.72 321.04 C 800.56 322.28, 798.71 323.52, 795.15 327.42 C 791.59 331.32, 789.61 333.97, 785.93 340.52 C 782.25 347.08, 780.11 351.39, 776.74 360.20 C 773.37 369.00, 771.48 374.65, 769.09 384.54 C 766.70 394.43, 765.64 400.20, 764.79 409.66 C 763.95 419.11, 764.02 423.97, 764.86 431.80 C 765.71 439.63, 766.65 443.21, 769.01 448.82 C 771.37 454.43, 773.06 456.69, 776.67 459.86 C 780.27 463.04, 782.57 464.01, 787.03 464.71 C 791.49 465.41, 794.04 465.04, 798.95 463.35 C 803.86 461.66, 806.40 460.31, 811.58 456.27 C 816.77 452.24, 819.53 449.57, 824.89 443.17 C 830.25 436.77, 832.95 432.84, 838.36 424.26 C 843.78 415.67, 846.65 410.55, 851.96 400.25 C 857.27 389.95, 860.08 383.89, 864.92 372.74 C 869.76 361.59, 872.09 355.43, 876.16 344.49 C 880.24 333.55, 882.10 327.81, 885.28 318.03 C 888.46 308.25, 889.86 303.52, 892.07 295.59 C 894.27 287.67, 895.08 284.14, 896.32 278.40 C 897.56 272.67, 898.16 270.36, 898.27 266.92 C 898.38 263.49, 897.96 262.18, 896.88 261.23 C 895.80 260.29, 894.43 260.01, 892.88 262.19 C 891.33 264.37, 890.76 266.37, 889.13 272.13 C 887.50 277.89, 886.62 281.85, 884.74 290.99 C 882.87 300.13, 881.77 306.19, 879.75 317.84 C 877.74 329.49, 876.51 336.64, 874.66 349.24 C 872.80 361.83, 871.83 368.91, 870.47 380.81 C 869.10 392.72, 868.46 398.68, 867.82 408.76 C 867.18 418.85, 867.04 423.42, 867.27 431.24 C 867.50 439.07, 867.89 442.37, 868.98 447.89 C 870.07 453.41, 870.69 455.43, 872.71 458.85 C 874.73 462.27, 876.13 463.62, 879.09 464.98 C 882.04 466.34, 884.05 466.43, 887.49 465.66 C 890.92 464.89, 892.69 463.90, 896.27 461.11 C 899.86 458.33, 901.56 456.38, 905.42 451.73 C 909.29 447.08, 911.41 444.24, 915.58 437.89 C 919.75 431.53, 922.12 427.59, 926.28 419.93 C 930.44 412.27, 932.65 407.64, 936.38 399.58 C 940.12 391.52, 942.10 387.00, 944.95 379.63 C 947.80 372.26, 949.01 368.68, 950.64 362.73 C 952.27 356.77, 952.86 354.17, 953.10 349.86 C 953.33 345.54, 953.26 343.62, 951.83 341.15 C 950.40 338.67, 948.77 337.60, 945.95 337.48 C 943.12 337.36, 941.26 337.92, 937.71 340.56 C 934.17 343.20, 932.06 345.31, 928.21 350.67 C 924.37 356.04, 922.03 359.73, 918.49 367.39 C 914.95 375.05, 912.98 379.97, 910.50 388.98 C 908.02 397.99, 906.80 403.34, 906.09 412.44 C 905.38 421.55, 905.49 426.47, 906.94 434.50 C 908.39 442.52, 909.72 446.33, 913.32 452.57 C 916.92 458.82, 919.52 461.59, 924.94 465.73 C 930.36 469.86, 933.60 471.37, 940.41 473.25 C 947.23 475.13, 951.95 475.04, 959.00 475.12 C 966.05 475.20, 970.00 474.50, 975.67 473.63 C 981.35 472.76, 985.12 471.70, 987.37 470.76 C 989.63 469.83, 989.36 468.80, 986.95 468.96 C 984.55 469.11, 980.94 470.71, 975.36 471.53 C 969.77 472.34, 965.90 473.05, 959.02 473.02 C 952.13 472.99, 947.51 473.14, 940.92 471.39 C 934.32 469.64, 931.26 468.21, 926.04 464.28 C 920.82 460.34, 918.32 457.72, 914.81 451.71 C 911.31 445.69, 909.97 442.03, 908.54 434.21 C 907.11 426.38, 906.97 421.53, 907.68 412.57 C 908.40 403.62, 909.61 398.30, 912.12 389.43 C 914.64 380.56, 916.64 375.68, 920.26 368.22 C 923.87 360.77, 926.33 357.17, 930.20 352.15 C 934.06 347.12, 936.44 345.42, 939.59 343.09 C 942.74 340.77, 944.00 340.63, 945.95 340.52 C 947.89 340.40, 948.39 340.67, 949.30 342.52 C 950.22 344.36, 950.64 345.80, 950.51 349.74 C 950.39 353.68, 950.11 356.36, 948.66 362.21 C 947.22 368.06, 946.06 371.67, 943.29 379.00 C 940.53 386.33, 938.56 390.85, 934.84 398.87 C 931.12 406.88, 928.91 411.50, 924.71 419.07 C 920.52 426.65, 918.11 430.54, 913.87 436.74 C 909.63 442.94, 907.40 445.71, 903.51 450.08 C 899.61 454.46, 897.76 456.18, 894.40 458.61 C 891.03 461.05, 889.49 461.57, 886.69 462.25 C 883.89 462.93, 882.74 462.96, 880.38 462.00 C 878.03 461.05, 876.81 460.39, 874.92 457.48 C 873.02 454.58, 872.13 452.74, 870.91 447.48 C 869.69 442.22, 869.17 438.91, 868.81 431.19 C 868.45 423.46, 868.55 418.89, 869.12 408.84 C 869.69 398.79, 870.31 392.83, 871.66 380.95 C 873.01 369.06, 873.98 361.99, 875.87 349.42 C 877.77 336.85, 879.00 329.69, 881.14 318.09 C 883.28 306.48, 884.46 300.43, 886.56 291.39 C 888.66 282.35, 889.84 278.43, 891.64 272.89 C 893.45 267.35, 894.75 265.87, 895.60 263.67 C 896.45 261.48, 895.90 261.29, 895.88 261.91 C 895.85 262.52, 895.76 263.52, 895.46 266.75 C 895.16 269.97, 895.35 272.34, 894.37 278.03 C 893.40 283.71, 892.65 287.27, 890.59 295.19 C 888.52 303.11, 887.15 307.85, 884.04 317.63 C 880.92 327.40, 879.07 333.14, 875.02 344.07 C 870.98 354.99, 868.65 361.14, 863.80 372.25 C 858.96 383.37, 856.14 389.41, 850.80 399.65 C 845.46 409.89, 842.56 414.98, 837.10 423.45 C 831.65 431.92, 828.89 435.79, 823.52 442.01 C 818.15 448.23, 815.33 450.74, 810.26 454.54 C 805.18 458.33, 802.72 459.44, 798.15 460.97 C 793.58 462.50, 791.40 462.75, 787.41 462.18 C 783.41 461.61, 781.49 460.96, 778.16 458.14 C 774.84 455.31, 773.11 453.36, 770.78 448.06 C 768.45 442.75, 767.39 439.27, 766.50 431.62 C 765.61 423.96, 765.49 419.13, 766.31 409.79 C 767.13 400.45, 768.18 394.70, 770.59 384.91 C 773.00 375.12, 774.91 369.49, 778.35 360.83 C 781.80 352.17, 784.02 347.89, 787.80 341.61 C 791.58 335.34, 793.78 332.85, 797.26 329.45 C 800.73 326.05, 802.68 325.71, 805.19 324.63 C 807.70 323.54, 808.46 323.58, 809.79 324.04 C 811.12 324.51, 811.42 325.07, 811.83 326.96 C 812.24 328.84, 812.34 330.22, 811.84 333.48 C 811.33 336.75, 811.00 338.99, 809.30 343.28 C 807.60 347.57, 806.14 350.24, 803.32 354.93 C 800.49 359.63, 798.67 362.45, 795.16 366.76 C 791.65 371.07, 789.58 373.29, 785.77 376.49 C 781.96 379.70, 779.48 380.89, 776.10 382.79 C 772.73 384.70, 771.18 384.97, 768.89 386.03 C 766.60 387.09, 765.42 387.30, 764.65 388.10 C 763.89 388.90, 763.93 389.64, 765.07 390.02" style="stroke: lightblue; fill: lightblue;"/></svg>